<mxfile host="Electron" modified="2024-02-07T03:17:02.694Z" agent="Mozilla/5.0 (X11; Linux x86_64) AppleWebKit/537.36 (KHTML, like Gecko) draw.io/22.1.21 Chrome/120.0.6099.109 Electron/28.1.0 Safari/537.36" etag="OoLaTx_1shQiC0vfWEUu" version="22.1.21" type="device">
  <diagram name="Page-1" id="ew7vi9b7o_5ddHdVxSJt">
    <mxGraphModel dx="1434" dy="907" grid="1" gridSize="10" guides="1" tooltips="1" connect="1" arrows="1" fold="1" page="1" pageScale="1" pageWidth="850" pageHeight="1100" math="0" shadow="0">
      <root>
        <mxCell id="0" />
        <mxCell id="1" parent="0" />
        <mxCell id="trYssVs36Saq6DxaFjGx-107" value="" style="group;fillColor=#232136;strokeColor=#232136;strokeWidth=25;" vertex="1" connectable="0" parent="1">
          <mxGeometry x="594" y="230" width="976" height="237" as="geometry" />
        </mxCell>
        <mxCell id="trYssVs36Saq6DxaFjGx-66" value="Parse Location&lt;br&gt;Information" style="rounded=1;whiteSpace=wrap;html=1;absoluteArcSize=1;arcSize=50;strokeWidth=3;strokeColor=#DB918D;fontFamily=Helvetica;fontSize=12;fontColor=#FFFFFF;fillColor=none;fontStyle=0;labelBackgroundColor=none;container=0;" vertex="1" parent="trYssVs36Saq6DxaFjGx-107">
          <mxGeometry x="587" y="8" width="110" height="40" as="geometry" />
        </mxCell>
        <mxCell id="trYssVs36Saq6DxaFjGx-68" value="Locations &lt;br&gt;Exists?" style="strokeWidth=3;html=1;shape=mxgraph.flowchart.decision;whiteSpace=wrap;strokeColor=#DB918D;fontFamily=Helvetica;fontSize=12;fontColor=#FFFFFF;fillColor=none;rounded=1;arcSize=50;fontStyle=0;labelBackgroundColor=none;container=0;" vertex="1" parent="trYssVs36Saq6DxaFjGx-107">
          <mxGeometry x="466" width="100" height="60" as="geometry" />
        </mxCell>
        <mxCell id="trYssVs36Saq6DxaFjGx-64" value="" style="edgeStyle=orthogonalEdgeStyle;shape=connector;rounded=1;orthogonalLoop=1;jettySize=auto;html=1;labelBackgroundColor=default;strokeColor=#DB918D;strokeWidth=3;fontFamily=Helvetica;fontSize=12;fontColor=#FFFFFF;endArrow=openThin;fillColor=#ffffff;arcSize=50;fontStyle=0;startArrow=none;startFill=0;endFill=0;" edge="1" parent="trYssVs36Saq6DxaFjGx-107" source="trYssVs36Saq6DxaFjGx-68" target="trYssVs36Saq6DxaFjGx-66">
          <mxGeometry relative="1" as="geometry">
            <Array as="points">
              <mxPoint x="626" y="30" />
            </Array>
          </mxGeometry>
        </mxCell>
        <mxCell id="trYssVs36Saq6DxaFjGx-69" value="" style="edgeStyle=orthogonalEdgeStyle;shape=connector;rounded=1;orthogonalLoop=1;jettySize=auto;html=1;labelBackgroundColor=default;strokeColor=#DB918D;strokeWidth=3;fontFamily=Helvetica;fontSize=12;fontColor=#FFFFFF;endArrow=openThin;fillColor=#ffffff;arcSize=50;fontStyle=0;startArrow=none;startFill=0;endFill=0;" edge="1" parent="trYssVs36Saq6DxaFjGx-107" source="trYssVs36Saq6DxaFjGx-70" target="trYssVs36Saq6DxaFjGx-68">
          <mxGeometry relative="1" as="geometry">
            <Array as="points">
              <mxPoint x="466" y="28" />
              <mxPoint x="466" y="28" />
            </Array>
          </mxGeometry>
        </mxCell>
        <mxCell id="trYssVs36Saq6DxaFjGx-70" value="Start" style="strokeWidth=3;html=1;shape=mxgraph.flowchart.start_2;whiteSpace=wrap;labelBackgroundColor=none;fillColor=none;strokeColor=#DB918D;fontColor=#FFFFFF;fontSize=12;fontStyle=0;rounded=1;arcSize=50;container=0;" vertex="1" parent="trYssVs36Saq6DxaFjGx-107">
          <mxGeometry x="396" y="10" width="40" height="40" as="geometry" />
        </mxCell>
        <mxCell id="trYssVs36Saq6DxaFjGx-74" value="&lt;font style=&quot;font-size: 12px;&quot;&gt;Data Req or&lt;br&gt;Locations&lt;br&gt;&lt;/font&gt;" style="strokeWidth=3;html=1;shape=mxgraph.flowchart.decision;whiteSpace=wrap;strokeColor=#DB918D;fontFamily=Helvetica;fontSize=12;fontColor=#FFFFFF;fillColor=none;rounded=1;arcSize=50;fontStyle=0;labelBackgroundColor=none;container=0;" vertex="1" parent="trYssVs36Saq6DxaFjGx-107">
          <mxGeometry x="582" y="70" width="120" height="60" as="geometry" />
        </mxCell>
        <mxCell id="trYssVs36Saq6DxaFjGx-65" style="edgeStyle=orthogonalEdgeStyle;shape=connector;curved=0;rounded=1;orthogonalLoop=1;jettySize=auto;html=1;labelBackgroundColor=default;strokeColor=#DB918D;strokeWidth=3;fontFamily=Helvetica;fontSize=12;fontColor=#FFFFFF;startArrow=none;startFill=0;endArrow=openThin;endFill=0;" edge="1" parent="trYssVs36Saq6DxaFjGx-107" source="trYssVs36Saq6DxaFjGx-66" target="trYssVs36Saq6DxaFjGx-74">
          <mxGeometry relative="1" as="geometry" />
        </mxCell>
        <mxCell id="trYssVs36Saq6DxaFjGx-76" value="Parse Child Location&lt;br&gt;Information,&lt;br&gt;append to &lt;br&gt;parent" style="rounded=1;whiteSpace=wrap;html=1;absoluteArcSize=1;arcSize=50;strokeWidth=3;strokeColor=#DB918D;fontFamily=Helvetica;fontSize=12;fontColor=#FFFFFF;fillColor=none;fontStyle=0;labelBackgroundColor=none;container=0;" vertex="1" parent="trYssVs36Saq6DxaFjGx-107">
          <mxGeometry x="727" y="60" width="98" height="80" as="geometry" />
        </mxCell>
        <mxCell id="trYssVs36Saq6DxaFjGx-73" style="edgeStyle=orthogonalEdgeStyle;shape=connector;curved=0;rounded=1;orthogonalLoop=1;jettySize=auto;html=1;labelBackgroundColor=default;strokeColor=#DB918D;strokeWidth=3;fontFamily=Helvetica;fontSize=12;fontColor=#FFFFFF;startArrow=none;startFill=0;endArrow=openThin;endFill=0;" edge="1" parent="trYssVs36Saq6DxaFjGx-107" source="trYssVs36Saq6DxaFjGx-74" target="trYssVs36Saq6DxaFjGx-76">
          <mxGeometry relative="1" as="geometry" />
        </mxCell>
        <mxCell id="trYssVs36Saq6DxaFjGx-78" style="edgeStyle=orthogonalEdgeStyle;shape=connector;curved=0;rounded=1;orthogonalLoop=1;jettySize=auto;html=1;exitX=0.5;exitY=0;exitDx=0;exitDy=0;exitPerimeter=0;entryX=1;entryY=0.5;entryDx=0;entryDy=0;labelBackgroundColor=default;strokeColor=#DB918D;strokeWidth=3;fontFamily=Helvetica;fontSize=12;fontColor=#FFFFFF;startArrow=none;startFill=0;endArrow=openThin;endFill=0;" edge="1" parent="trYssVs36Saq6DxaFjGx-107" source="trYssVs36Saq6DxaFjGx-79" target="trYssVs36Saq6DxaFjGx-66">
          <mxGeometry relative="1" as="geometry" />
        </mxCell>
        <mxCell id="trYssVs36Saq6DxaFjGx-79" value="Locations &lt;br&gt;left to parse" style="strokeWidth=3;html=1;shape=mxgraph.flowchart.decision;whiteSpace=wrap;strokeColor=#DB918D;fontFamily=Helvetica;fontSize=12;fontColor=#FFFFFF;fillColor=none;rounded=1;arcSize=50;fontStyle=0;labelBackgroundColor=none;spacingTop=-2;container=0;" vertex="1" parent="trYssVs36Saq6DxaFjGx-107">
          <mxGeometry x="796" y="167" width="120" height="60" as="geometry" />
        </mxCell>
        <mxCell id="trYssVs36Saq6DxaFjGx-75" style="edgeStyle=orthogonalEdgeStyle;shape=connector;curved=0;rounded=1;orthogonalLoop=1;jettySize=auto;html=1;entryX=0;entryY=0.5;entryDx=0;entryDy=0;entryPerimeter=0;labelBackgroundColor=default;strokeColor=#DB918D;strokeWidth=3;fontFamily=Helvetica;fontSize=12;fontColor=#FFFFFF;startArrow=none;startFill=0;endArrow=openThin;endFill=0;" edge="1" parent="trYssVs36Saq6DxaFjGx-107" source="trYssVs36Saq6DxaFjGx-76" target="trYssVs36Saq6DxaFjGx-79">
          <mxGeometry relative="1" as="geometry" />
        </mxCell>
        <mxCell id="trYssVs36Saq6DxaFjGx-80" value="Error, invalid config" style="strokeWidth=3;html=1;shape=mxgraph.flowchart.terminator;whiteSpace=wrap;strokeColor=#DB918D;fontFamily=Helvetica;fontSize=12;fontColor=#FFFFFF;fillColor=none;rounded=1;arcSize=50;fontStyle=0;labelBackgroundColor=none;container=0;" vertex="1" parent="trYssVs36Saq6DxaFjGx-107">
          <mxGeometry x="476.5" y="80" width="79" height="40" as="geometry" />
        </mxCell>
        <mxCell id="trYssVs36Saq6DxaFjGx-67" style="edgeStyle=orthogonalEdgeStyle;shape=connector;rounded=1;orthogonalLoop=1;jettySize=auto;html=1;labelBackgroundColor=default;strokeColor=#DB918D;strokeWidth=3;fontFamily=Helvetica;fontSize=12;fontColor=#FFFFFF;endArrow=openThin;fillColor=#ffffff;startArrow=none;startFill=0;endFill=0;" edge="1" parent="trYssVs36Saq6DxaFjGx-107" source="trYssVs36Saq6DxaFjGx-68" target="trYssVs36Saq6DxaFjGx-80">
          <mxGeometry relative="1" as="geometry">
            <Array as="points" />
          </mxGeometry>
        </mxCell>
        <mxCell id="trYssVs36Saq6DxaFjGx-71" style="edgeStyle=orthogonalEdgeStyle;shape=connector;curved=0;rounded=1;orthogonalLoop=1;jettySize=auto;html=1;labelBackgroundColor=default;strokeColor=#DB918D;strokeWidth=3;fontFamily=Helvetica;fontSize=12;fontColor=#FFFFFF;startArrow=none;startFill=0;endArrow=openThin;endFill=0;" edge="1" parent="trYssVs36Saq6DxaFjGx-107" source="trYssVs36Saq6DxaFjGx-74" target="trYssVs36Saq6DxaFjGx-80">
          <mxGeometry relative="1" as="geometry" />
        </mxCell>
        <mxCell id="trYssVs36Saq6DxaFjGx-81" value="End" style="strokeWidth=3;html=1;shape=mxgraph.flowchart.start_2;whiteSpace=wrap;labelBackgroundColor=none;fillColor=none;strokeColor=#DB918D;fontColor=#FFFFFF;fontSize=12;fontStyle=0;rounded=1;arcSize=50;container=0;" vertex="1" parent="trYssVs36Saq6DxaFjGx-107">
          <mxGeometry x="936" y="177" width="40" height="40" as="geometry" />
        </mxCell>
        <mxCell id="trYssVs36Saq6DxaFjGx-77" style="edgeStyle=orthogonalEdgeStyle;shape=connector;rounded=1;orthogonalLoop=1;jettySize=auto;html=1;labelBackgroundColor=default;strokeColor=#DB918D;strokeWidth=3;fontFamily=Helvetica;fontSize=12;fontColor=#FFFFFF;endArrow=openThin;fillColor=#ffffff;arcSize=50;fontStyle=0;startArrow=none;startFill=0;endFill=0;" edge="1" parent="trYssVs36Saq6DxaFjGx-107" source="trYssVs36Saq6DxaFjGx-79" target="trYssVs36Saq6DxaFjGx-81">
          <mxGeometry relative="1" as="geometry">
            <Array as="points" />
            <mxPoint x="945" y="197" as="targetPoint" />
          </mxGeometry>
        </mxCell>
        <mxCell id="trYssVs36Saq6DxaFjGx-82" value="Yes" style="edgeLabel;html=1;align=center;verticalAlign=middle;resizable=0;points=[];fontSize=12;fontFamily=Helvetica;fontColor=#FFFFFF;labelBackgroundColor=none;fillColor=#ffffff;strokeColor=#666666;rounded=1;arcSize=50;strokeWidth=3;fontStyle=0;container=0;" vertex="1" connectable="0" parent="trYssVs36Saq6DxaFjGx-107">
          <mxGeometry x="871.0033333333333" y="163" as="geometry">
            <mxPoint x="-2" y="-1" as="offset" />
          </mxGeometry>
        </mxCell>
        <mxCell id="trYssVs36Saq6DxaFjGx-83" value="No" style="edgeLabel;html=1;align=center;verticalAlign=middle;resizable=0;points=[];fontSize=12;fontFamily=Helvetica;fontColor=#FFFFFF;labelBackgroundColor=none;fillColor=#ffffff;strokeColor=#666666;rounded=1;arcSize=50;strokeWidth=3;fontStyle=0;container=0;" vertex="1" connectable="0" parent="trYssVs36Saq6DxaFjGx-107">
          <mxGeometry x="926.0033333333333" y="184" as="geometry">
            <mxPoint x="-2" y="-1" as="offset" />
          </mxGeometry>
        </mxCell>
        <mxCell id="trYssVs36Saq6DxaFjGx-84" value="Locations" style="edgeLabel;html=1;align=center;verticalAlign=middle;resizable=0;points=[];fontSize=12;fontFamily=Helvetica;fontColor=#FFFFFF;labelBackgroundColor=none;fillColor=#ffffff;strokeColor=#666666;rounded=1;arcSize=50;strokeWidth=3;fontStyle=0;container=0;" vertex="1" connectable="0" parent="trYssVs36Saq6DxaFjGx-107">
          <mxGeometry x="702.0033333333333" y="77" as="geometry">
            <mxPoint x="-4" y="-1" as="offset" />
          </mxGeometry>
        </mxCell>
        <mxCell id="trYssVs36Saq6DxaFjGx-85" value="Yes" style="edgeLabel;html=1;align=center;verticalAlign=middle;resizable=0;points=[];fontSize=12;fontFamily=Helvetica;fontColor=#FFFFFF;labelBackgroundColor=none;fillColor=#ffffff;strokeColor=#666666;rounded=1;arcSize=50;strokeWidth=3;fontStyle=0;container=0;" vertex="1" connectable="0" parent="trYssVs36Saq6DxaFjGx-107">
          <mxGeometry x="566.0033333333333" y="10" as="geometry">
            <mxPoint x="-4" y="-1" as="offset" />
          </mxGeometry>
        </mxCell>
        <mxCell id="trYssVs36Saq6DxaFjGx-86" value="None, or both" style="text;html=1;strokeColor=none;fillColor=none;align=center;verticalAlign=middle;whiteSpace=wrap;rounded=0;fontSize=12;fontFamily=Helvetica;fontColor=#FFFFFF;container=0;" vertex="1" parent="trYssVs36Saq6DxaFjGx-107">
          <mxGeometry x="549" y="65" width="60" height="30" as="geometry" />
        </mxCell>
        <mxCell id="trYssVs36Saq6DxaFjGx-87" style="edgeStyle=orthogonalEdgeStyle;shape=connector;curved=0;rounded=1;orthogonalLoop=1;jettySize=auto;html=1;entryX=0;entryY=0.5;entryDx=0;entryDy=0;entryPerimeter=0;labelBackgroundColor=default;strokeColor=#DB918D;strokeWidth=3;fontFamily=Helvetica;fontSize=12;fontColor=#FFFFFF;startArrow=none;startFill=0;endArrow=openThin;endFill=0;" edge="1" parent="trYssVs36Saq6DxaFjGx-107" source="trYssVs36Saq6DxaFjGx-88" target="trYssVs36Saq6DxaFjGx-79">
          <mxGeometry relative="1" as="geometry" />
        </mxCell>
        <mxCell id="trYssVs36Saq6DxaFjGx-88" value="Parse Data&lt;br&gt;Requirement&lt;br&gt;Information,&lt;br&gt;append to &lt;br&gt;Location" style="rounded=1;whiteSpace=wrap;html=1;absoluteArcSize=1;arcSize=50;strokeWidth=3;strokeColor=#DB918D;fontFamily=Helvetica;fontSize=12;fontColor=#FFFFFF;fillColor=none;fontStyle=0;labelBackgroundColor=none;container=0;" vertex="1" parent="trYssVs36Saq6DxaFjGx-107">
          <mxGeometry x="593" y="157" width="98" height="80" as="geometry" />
        </mxCell>
        <mxCell id="trYssVs36Saq6DxaFjGx-72" style="edgeStyle=orthogonalEdgeStyle;shape=connector;curved=0;rounded=1;orthogonalLoop=1;jettySize=auto;html=1;exitX=0.5;exitY=1;exitDx=0;exitDy=0;exitPerimeter=0;labelBackgroundColor=default;strokeColor=#DB918D;strokeWidth=3;fontFamily=Helvetica;fontSize=12;fontColor=#FFFFFF;startArrow=none;startFill=0;endArrow=openThin;endFill=0;" edge="1" parent="trYssVs36Saq6DxaFjGx-107" source="trYssVs36Saq6DxaFjGx-74" target="trYssVs36Saq6DxaFjGx-88">
          <mxGeometry relative="1" as="geometry" />
        </mxCell>
        <mxCell id="trYssVs36Saq6DxaFjGx-89" value="Data&lt;br&gt;Requirement" style="edgeLabel;html=1;align=right;verticalAlign=middle;resizable=0;points=[];fontSize=12;fontFamily=Helvetica;fontColor=#FFFFFF;labelBackgroundColor=none;fillColor=#ffffff;strokeColor=#666666;rounded=1;arcSize=50;strokeWidth=3;fontStyle=0;container=0;" vertex="1" connectable="0" parent="trYssVs36Saq6DxaFjGx-107">
          <mxGeometry x="633.0033333333333" y="139" as="geometry">
            <mxPoint x="-4" y="-1" as="offset" />
          </mxGeometry>
        </mxCell>
        <mxCell id="trYssVs36Saq6DxaFjGx-90" value="No" style="edgeLabel;html=1;align=center;verticalAlign=middle;resizable=0;points=[];fontSize=12;fontFamily=Helvetica;fontColor=#FFFFFF;labelBackgroundColor=none;fillColor=#ffffff;strokeColor=#666666;rounded=1;arcSize=50;strokeWidth=3;fontStyle=0;container=0;" vertex="1" connectable="0" parent="trYssVs36Saq6DxaFjGx-107">
          <mxGeometry x="501.00333333333333" y="62" as="geometry">
            <mxPoint x="-4" y="-1" as="offset" />
          </mxGeometry>
        </mxCell>
        <mxCell id="trYssVs36Saq6DxaFjGx-100" style="edgeStyle=orthogonalEdgeStyle;shape=connector;curved=0;rounded=1;orthogonalLoop=1;jettySize=auto;html=1;labelBackgroundColor=default;strokeColor=#DB918D;strokeWidth=3;align=center;verticalAlign=middle;fontFamily=Helvetica;fontSize=12;fontColor=#FFFFFF;startArrow=none;startFill=0;endArrow=openThin;endFill=0;dashed=1;" edge="1" parent="trYssVs36Saq6DxaFjGx-107" source="trYssVs36Saq6DxaFjGx-88" target="trYssVs36Saq6DxaFjGx-2">
          <mxGeometry relative="1" as="geometry">
            <mxPoint x="506" y="250" as="targetPoint" />
          </mxGeometry>
        </mxCell>
        <mxCell id="trYssVs36Saq6DxaFjGx-101" style="edgeStyle=orthogonalEdgeStyle;shape=connector;curved=0;rounded=1;orthogonalLoop=1;jettySize=auto;html=1;labelBackgroundColor=default;strokeColor=#DB918D;strokeWidth=3;align=center;verticalAlign=middle;fontFamily=Helvetica;fontSize=12;fontColor=#FFFFFF;startArrow=none;startFill=0;endArrow=openThin;endFill=0;dashed=1;" edge="1" parent="trYssVs36Saq6DxaFjGx-107" source="lI_EmPgApQuugRqTcfI--2" target="trYssVs36Saq6DxaFjGx-70">
          <mxGeometry relative="1" as="geometry">
            <mxPoint x="416" y="1.1368683772161603e-13" as="targetPoint" />
          </mxGeometry>
        </mxCell>
        <mxCell id="trYssVs36Saq6DxaFjGx-105" value="" style="group;flipH=1;flipV=1;" vertex="1" connectable="0" parent="trYssVs36Saq6DxaFjGx-107">
          <mxGeometry y="5" width="370" height="113" as="geometry" />
        </mxCell>
        <mxCell id="lI_EmPgApQuugRqTcfI--1" value="Start" style="strokeWidth=3;html=1;shape=mxgraph.flowchart.start_2;whiteSpace=wrap;labelBackgroundColor=none;fillColor=none;strokeColor=#DB918D;fontColor=#FFFFFF;fontSize=12;fontStyle=0;rounded=1;arcSize=50;container=0;" parent="trYssVs36Saq6DxaFjGx-105" vertex="1">
          <mxGeometry y="63" width="50" height="50" as="geometry" />
        </mxCell>
        <mxCell id="lI_EmPgApQuugRqTcfI--2" value="Parse Locations" style="rounded=1;whiteSpace=wrap;html=1;absoluteArcSize=1;arcSize=50;strokeWidth=3;strokeColor=#DB918D;fontFamily=Helvetica;fontSize=12;fontColor=#FFFFFF;fillColor=none;fontStyle=0;labelBackgroundColor=none;container=0;" parent="trYssVs36Saq6DxaFjGx-105" vertex="1">
          <mxGeometry x="237.5" y="5" width="125" height="40" as="geometry" />
        </mxCell>
        <mxCell id="nUKhyI13u18EGrhSwZpv-35" value="" style="edgeStyle=orthogonalEdgeStyle;shape=connector;curved=0;rounded=1;orthogonalLoop=1;jettySize=auto;html=1;labelBackgroundColor=default;strokeColor=#DB918D;strokeWidth=3;fontFamily=Helvetica;fontSize=11;fontColor=#FFFFFF;startArrow=none;startFill=0;endArrow=openThin;endFill=0;" parent="trYssVs36Saq6DxaFjGx-105" source="lI_EmPgApQuugRqTcfI--3" target="lI_EmPgApQuugRqTcfI--2" edge="1">
          <mxGeometry relative="1" as="geometry" />
        </mxCell>
        <mxCell id="lI_EmPgApQuugRqTcfI--3" value="Parse Application Information" style="rounded=1;whiteSpace=wrap;html=1;absoluteArcSize=1;arcSize=50;strokeWidth=3;strokeColor=#DB918D;fontFamily=Helvetica;fontSize=12;fontColor=#FFFFFF;fillColor=none;fontStyle=0;labelBackgroundColor=none;container=0;" parent="trYssVs36Saq6DxaFjGx-105" vertex="1">
          <mxGeometry x="230" y="68" width="140" height="40" as="geometry" />
        </mxCell>
        <mxCell id="nUKhyI13u18EGrhSwZpv-30" value="" style="edgeStyle=orthogonalEdgeStyle;shape=connector;curved=0;rounded=1;orthogonalLoop=1;jettySize=auto;html=1;labelBackgroundColor=default;strokeColor=#DB918D;strokeWidth=3;fontFamily=Helvetica;fontSize=11;fontColor=#FFFFFF;startArrow=none;startFill=0;endArrow=openThin;endFill=0;" parent="trYssVs36Saq6DxaFjGx-105" source="lI_EmPgApQuugRqTcfI--5" target="lI_EmPgApQuugRqTcfI--3" edge="1">
          <mxGeometry relative="1" as="geometry" />
        </mxCell>
        <mxCell id="lI_EmPgApQuugRqTcfI--5" value="Load YAML file" style="rounded=1;whiteSpace=wrap;html=1;absoluteArcSize=1;arcSize=50;strokeWidth=3;strokeColor=#DB918D;fontFamily=Helvetica;fontSize=12;fontColor=#FFFFFF;fillColor=none;fontStyle=0;labelBackgroundColor=none;container=0;" parent="trYssVs36Saq6DxaFjGx-105" vertex="1">
          <mxGeometry x="95" y="68" width="100" height="40" as="geometry" />
        </mxCell>
        <mxCell id="nUKhyI13u18EGrhSwZpv-29" value="" style="edgeStyle=orthogonalEdgeStyle;shape=connector;curved=0;rounded=1;orthogonalLoop=1;jettySize=auto;html=1;labelBackgroundColor=default;strokeColor=#DB918D;strokeWidth=3;fontFamily=Helvetica;fontSize=11;fontColor=#FFFFFF;startArrow=none;startFill=0;endArrow=openThin;endFill=0;" parent="trYssVs36Saq6DxaFjGx-105" source="lI_EmPgApQuugRqTcfI--1" target="lI_EmPgApQuugRqTcfI--5" edge="1">
          <mxGeometry relative="1" as="geometry" />
        </mxCell>
        <mxCell id="lI_EmPgApQuugRqTcfI--32" value="Report success or failure" style="rounded=1;whiteSpace=wrap;html=1;absoluteArcSize=1;arcSize=50;strokeWidth=3;strokeColor=#DB918D;fontFamily=Helvetica;fontSize=12;fontColor=#FFFFFF;fillColor=none;fontStyle=0;labelBackgroundColor=none;container=0;" parent="trYssVs36Saq6DxaFjGx-105" vertex="1">
          <mxGeometry x="80" y="5" width="130" height="40" as="geometry" />
        </mxCell>
        <mxCell id="nUKhyI13u18EGrhSwZpv-39" style="edgeStyle=orthogonalEdgeStyle;shape=connector;curved=0;rounded=1;orthogonalLoop=1;jettySize=auto;html=1;labelBackgroundColor=default;strokeColor=#DB918D;strokeWidth=3;fontFamily=Helvetica;fontSize=11;fontColor=#FFFFFF;startArrow=none;startFill=0;endArrow=openThin;endFill=0;" parent="trYssVs36Saq6DxaFjGx-105" source="lI_EmPgApQuugRqTcfI--2" target="lI_EmPgApQuugRqTcfI--32" edge="1">
          <mxGeometry relative="1" as="geometry" />
        </mxCell>
        <mxCell id="nUKhyI13u18EGrhSwZpv-21" value="End" style="strokeWidth=3;html=1;shape=mxgraph.flowchart.start_2;whiteSpace=wrap;labelBackgroundColor=none;fillColor=none;strokeColor=#DB918D;fontColor=#FFFFFF;fontSize=12;fontStyle=0;rounded=1;arcSize=50;container=0;" parent="trYssVs36Saq6DxaFjGx-105" vertex="1">
          <mxGeometry width="50" height="50" as="geometry" />
        </mxCell>
        <mxCell id="nUKhyI13u18EGrhSwZpv-40" style="edgeStyle=orthogonalEdgeStyle;shape=connector;curved=0;rounded=1;orthogonalLoop=1;jettySize=auto;html=1;labelBackgroundColor=default;strokeColor=#DB918D;strokeWidth=3;fontFamily=Helvetica;fontSize=11;fontColor=#FFFFFF;startArrow=none;startFill=0;endArrow=openThin;endFill=0;" parent="trYssVs36Saq6DxaFjGx-105" source="lI_EmPgApQuugRqTcfI--32" target="nUKhyI13u18EGrhSwZpv-21" edge="1">
          <mxGeometry relative="1" as="geometry" />
        </mxCell>
        <mxCell id="trYssVs36Saq6DxaFjGx-106" value="" style="group;flipH=1;" vertex="1" connectable="0" parent="trYssVs36Saq6DxaFjGx-107">
          <mxGeometry x="6" y="140" width="479" height="97" as="geometry" />
        </mxCell>
        <mxCell id="trYssVs36Saq6DxaFjGx-2" value="Start" style="strokeWidth=3;html=1;shape=mxgraph.flowchart.start_2;whiteSpace=wrap;labelBackgroundColor=none;fillColor=none;strokeColor=#DB918D;fontColor=#FFFFFF;fontSize=12;fontStyle=0;rounded=1;arcSize=50;container=0;flipV=0;" vertex="1" parent="trYssVs36Saq6DxaFjGx-106">
          <mxGeometry x="439" width="40" height="40" as="geometry" />
        </mxCell>
        <mxCell id="trYssVs36Saq6DxaFjGx-3" value="Create empty array for components" style="rounded=1;whiteSpace=wrap;html=1;absoluteArcSize=1;arcSize=50;strokeWidth=3;strokeColor=#DB918D;fontFamily=Helvetica;fontSize=12;fontColor=#FFFFFF;fillColor=none;fontStyle=0;labelBackgroundColor=none;container=0;flipV=0;" vertex="1" parent="trYssVs36Saq6DxaFjGx-106">
          <mxGeometry x="292" width="122" height="40" as="geometry" />
        </mxCell>
        <mxCell id="trYssVs36Saq6DxaFjGx-4" style="edgeStyle=orthogonalEdgeStyle;shape=connector;curved=0;rounded=1;orthogonalLoop=1;jettySize=auto;html=1;labelBackgroundColor=default;strokeColor=#DB918D;strokeWidth=3;fontFamily=Helvetica;fontSize=12;fontColor=#FFFFFF;startArrow=none;startFill=0;endArrow=openThin;endFill=0;" edge="1" parent="trYssVs36Saq6DxaFjGx-106" source="trYssVs36Saq6DxaFjGx-2" target="trYssVs36Saq6DxaFjGx-3">
          <mxGeometry relative="1" as="geometry" />
        </mxCell>
        <mxCell id="trYssVs36Saq6DxaFjGx-5" value="Get required or&lt;br&gt;optional" style="rounded=1;whiteSpace=wrap;html=1;absoluteArcSize=1;arcSize=50;strokeWidth=3;strokeColor=#DB918D;fontFamily=Helvetica;fontSize=12;fontColor=#FFFFFF;fillColor=none;fontStyle=0;labelBackgroundColor=none;container=0;flipV=0;" vertex="1" parent="trYssVs36Saq6DxaFjGx-106">
          <mxGeometry width="110" height="40" as="geometry" />
        </mxCell>
        <mxCell id="trYssVs36Saq6DxaFjGx-6" style="edgeStyle=orthogonalEdgeStyle;shape=connector;curved=0;rounded=1;orthogonalLoop=1;jettySize=auto;html=1;labelBackgroundColor=default;strokeColor=#DB918D;strokeWidth=3;fontFamily=Helvetica;fontSize=12;fontColor=#FFFFFF;startArrow=none;startFill=0;endArrow=openThin;endFill=0;" edge="1" parent="trYssVs36Saq6DxaFjGx-106" source="trYssVs36Saq6DxaFjGx-7" target="trYssVs36Saq6DxaFjGx-5">
          <mxGeometry relative="1" as="geometry" />
        </mxCell>
        <mxCell id="trYssVs36Saq6DxaFjGx-7" value="Validate &lt;br&gt;IoTOutput" style="rounded=1;whiteSpace=wrap;html=1;absoluteArcSize=1;arcSize=50;strokeWidth=3;strokeColor=#DB918D;fontFamily=Helvetica;fontSize=12;fontColor=#FFFFFF;fillColor=none;fontStyle=0;labelBackgroundColor=none;container=0;flipV=0;flipH=1;" vertex="1" parent="trYssVs36Saq6DxaFjGx-106">
          <mxGeometry x="146" width="110" height="40" as="geometry" />
        </mxCell>
        <mxCell id="trYssVs36Saq6DxaFjGx-8" style="edgeStyle=orthogonalEdgeStyle;shape=connector;curved=0;rounded=1;orthogonalLoop=1;jettySize=auto;html=1;labelBackgroundColor=default;strokeColor=#DB918D;strokeWidth=3;fontFamily=Helvetica;fontSize=12;fontColor=#FFFFFF;startArrow=none;startFill=0;endArrow=openThin;endFill=0;" edge="1" parent="trYssVs36Saq6DxaFjGx-106" source="trYssVs36Saq6DxaFjGx-3" target="trYssVs36Saq6DxaFjGx-7">
          <mxGeometry relative="1" as="geometry" />
        </mxCell>
        <mxCell id="trYssVs36Saq6DxaFjGx-10" value="Get count, if none &lt;br&gt;set to null" style="rounded=1;whiteSpace=wrap;html=1;absoluteArcSize=1;arcSize=50;strokeWidth=3;strokeColor=#DB918D;fontFamily=Helvetica;fontSize=12;fontColor=#FFFFFF;fillColor=none;fontStyle=0;labelBackgroundColor=none;container=0;flipV=0;" vertex="1" parent="trYssVs36Saq6DxaFjGx-106">
          <mxGeometry x="231.5" y="57" width="130" height="40" as="geometry" />
        </mxCell>
        <mxCell id="trYssVs36Saq6DxaFjGx-11" style="edgeStyle=orthogonalEdgeStyle;shape=connector;curved=0;rounded=1;orthogonalLoop=1;jettySize=auto;html=1;labelBackgroundColor=default;strokeColor=#DB918D;strokeWidth=3;fontFamily=Helvetica;fontSize=12;fontColor=#FFFFFF;startArrow=none;startFill=0;endArrow=openThin;endFill=0;" edge="1" parent="trYssVs36Saq6DxaFjGx-106" source="trYssVs36Saq6DxaFjGx-12" target="trYssVs36Saq6DxaFjGx-10">
          <mxGeometry relative="1" as="geometry" />
        </mxCell>
        <mxCell id="trYssVs36Saq6DxaFjGx-12" value="Get timeout, if none &lt;br&gt;set to null" style="rounded=1;whiteSpace=wrap;html=1;absoluteArcSize=1;arcSize=50;strokeWidth=3;strokeColor=#DB918D;fontFamily=Helvetica;fontSize=12;fontColor=#FFFFFF;fillColor=none;fontStyle=0;labelBackgroundColor=none;container=0;flipV=0;" vertex="1" parent="trYssVs36Saq6DxaFjGx-106">
          <mxGeometry x="76" y="57" width="130" height="40" as="geometry" />
        </mxCell>
        <mxCell id="trYssVs36Saq6DxaFjGx-15" style="edgeStyle=orthogonalEdgeStyle;shape=connector;curved=0;rounded=1;orthogonalLoop=1;jettySize=auto;html=1;labelBackgroundColor=default;strokeColor=#DB918D;strokeWidth=3;fontFamily=Helvetica;fontSize=12;fontColor=#FFFFFF;startArrow=none;startFill=0;endArrow=openThin;endFill=0;entryX=0;entryY=0.5;entryDx=0;entryDy=0;" edge="1" parent="trYssVs36Saq6DxaFjGx-106" source="trYssVs36Saq6DxaFjGx-5" target="trYssVs36Saq6DxaFjGx-12">
          <mxGeometry relative="1" as="geometry" />
        </mxCell>
        <mxCell id="trYssVs36Saq6DxaFjGx-13" value="End" style="strokeWidth=3;html=1;shape=mxgraph.flowchart.start_2;whiteSpace=wrap;labelBackgroundColor=none;fillColor=none;strokeColor=#DB918D;fontColor=#FFFFFF;fontSize=12;fontStyle=0;rounded=1;arcSize=50;container=0;flipV=0;" vertex="1" parent="trYssVs36Saq6DxaFjGx-106">
          <mxGeometry x="385" y="57" width="40" height="40" as="geometry" />
        </mxCell>
        <mxCell id="trYssVs36Saq6DxaFjGx-14" style="edgeStyle=orthogonalEdgeStyle;shape=connector;curved=0;rounded=1;orthogonalLoop=1;jettySize=auto;html=1;labelBackgroundColor=default;strokeColor=#DB918D;strokeWidth=3;fontFamily=Helvetica;fontSize=12;fontColor=#FFFFFF;startArrow=none;startFill=0;endArrow=openThin;endFill=0;" edge="1" parent="trYssVs36Saq6DxaFjGx-106" source="trYssVs36Saq6DxaFjGx-10" target="trYssVs36Saq6DxaFjGx-13">
          <mxGeometry relative="1" as="geometry" />
        </mxCell>
      </root>
    </mxGraphModel>
  </diagram>
</mxfile>
